<svg width="150" height="150" viewBox="0 0 150 150" fill="none" xmlns="http://www.w3.org/2000/svg">
<rect width="150" height="150" fill="url(#paint0_linear_952_230)"/>
<path d="M34.7359 91.4718C33.8506 91.4718 33.0917 91.1605 32.4593 90.5378C31.8269 89.9152 31.5156 89.1563 31.5253 88.2612C31.5156 87.3856 31.8269 86.6364 32.4593 86.0138C33.0917 85.3911 33.8506 85.0798 34.7359 85.0798C35.5921 85.0798 36.3364 85.3911 36.9688 86.0138C37.6109 86.6364 37.9368 87.3856 37.9465 88.2612C37.9368 88.8547 37.7811 89.3946 37.4795 89.8811C37.1877 90.3676 36.7985 90.7567 36.312 91.0486C35.8353 91.3307 35.3099 91.4718 34.7359 91.4718ZM55.5768 68.7348V72.8211H42.3257V68.7348H55.5768ZM45.6384 91.1508V66.6187C45.6384 65.1107 45.9498 63.8557 46.5724 62.8535C47.2048 61.8514 48.0513 61.1023 49.1117 60.6061C50.1722 60.1099 51.3494 59.8618 52.6434 59.8618C53.558 59.8618 54.3703 59.9348 55.0806 60.0807C55.7908 60.2267 56.3162 60.358 56.6567 60.4748L55.6059 64.561C55.3822 64.4929 55.1 64.4248 54.7595 64.3567C54.419 64.2789 54.0396 64.24 53.6212 64.24C52.6386 64.24 51.9429 64.4783 51.5343 64.955C51.1354 65.422 50.936 66.0934 50.936 66.969V91.1508H45.6384ZM60.536 91.1508V68.7348H65.8189V91.1508H60.536ZM63.192 65.5534C62.3553 65.5534 61.6354 65.2761 61.0322 64.7215C60.429 64.1573 60.1274 63.4811 60.1274 62.693C60.1274 61.8952 60.429 61.2191 61.0322 60.6645C61.6354 60.1002 62.3553 59.8181 63.192 59.8181C64.0385 59.8181 64.7584 60.1002 65.3519 60.6645C65.9551 61.2191 66.2567 61.8952 66.2567 62.693C66.2567 63.4811 65.9551 64.1573 65.3519 64.7215C64.7584 65.2761 64.0385 65.5534 63.192 65.5534ZM77.3563 78.0164V91.1508H72.0733V68.7348H77.1228V72.5438H77.3855C77.9011 71.2887 78.7232 70.2915 79.8518 69.5521C80.9901 68.8127 82.396 68.4429 84.0694 68.4429C85.6163 68.4429 86.9638 68.7737 88.1118 69.4353C89.2696 70.0969 90.1647 71.0552 90.7971 72.3103C91.4392 73.5653 91.7554 75.0879 91.7457 76.8781V91.1508H86.4627V77.6954C86.4627 76.1971 86.0736 75.0247 85.2952 74.1783C84.5266 73.3318 83.4613 72.9086 82.0992 72.9086C81.175 72.9086 80.3528 73.1129 79.6329 73.5216C78.9227 73.9204 78.3632 74.4993 77.9546 75.2582C77.5557 76.0171 77.3563 76.9365 77.3563 78.0164ZM106.256 91.5448C104.496 91.5448 102.919 91.0924 101.528 90.1876C100.137 89.2828 99.0375 87.9693 98.2299 86.2473C97.4224 84.5252 97.0187 82.4334 97.0187 79.972C97.0187 77.4813 97.4273 75.3798 98.2445 73.6675C99.0715 71.9454 100.186 70.6466 101.586 69.771C102.987 68.8856 104.549 68.4429 106.271 68.4429C107.585 68.4429 108.664 68.6667 109.511 69.1143C110.357 69.5521 111.029 70.0823 111.525 70.705C112.021 71.3179 112.405 71.8968 112.678 72.4416H112.897V61.2628H118.194V91.1508H112.999V87.6191H112.678C112.405 88.1639 112.011 88.7428 111.496 89.3557C110.98 89.9589 110.299 90.4746 109.453 90.9027C108.606 91.3307 107.541 91.5448 106.256 91.5448ZM107.73 87.2105C108.849 87.2105 109.803 86.9089 110.591 86.3056C111.379 85.6927 111.977 84.8414 112.386 83.7517C112.794 82.6621 112.999 81.3924 112.999 79.9428C112.999 78.4931 112.794 77.2332 112.386 76.163C111.987 75.0928 111.393 74.261 110.605 73.6675C109.827 73.074 108.869 72.7773 107.73 72.7773C106.553 72.7773 105.571 73.0837 104.783 73.6967C103.994 74.3096 103.401 75.156 103.002 76.236C102.603 77.3159 102.404 78.5515 102.404 79.9428C102.404 81.3438 102.603 82.594 103.002 83.6934C103.411 84.783 104.009 85.6441 104.797 86.2765C105.595 86.8991 106.573 87.2105 107.73 87.2105Z" fill="black"/>
<defs>
<linearGradient id="paint0_linear_952_230" x1="0" y1="0" x2="150" y2="150" gradientUnits="userSpaceOnUse">
<stop stop-color="#C2F39C"/>
<stop offset="1" stop-color="#83E2B9"/>
</linearGradient>
</defs>
</svg>
