<svg width="100" height="100" viewBox="0 0 100 100" fill="none" xmlns="http://www.w3.org/2000/svg">
<g clip-path="url(#clip0_6635_2605)">
<path d="M100.012 0.0078125H0.0117188V100.008H100.012V0.0078125Z" fill="#440099"/>
<path d="M41.4775 24.8115C53.1601 20.5 63.6543 18.9521 64.915 21.3594C66.1621 23.7305 57.9678 29.0566 46.54 33.3389C46.3781 32.8358 46.189 32.3419 45.9736 31.8594C55.1308 28.4414 61.7783 24.7881 60.7793 22.8857C59.7637 20.9512 51.6777 22.6299 42.2812 26.0986C32.8847 29.5674 25.7295 33.5137 26.7441 35.4492C27.5449 36.9736 32.9013 36.1328 39.7383 34.0039L38.6113 35.9502C30.2031 38.3232 23.5947 38.8525 22.6084 36.9756C21.3457 34.5703 29.7939 29.123 41.4775 24.8115Z" fill="#EF2AC1"/>
<path d="M77.2305 51.0215C76.979 50.3526 76.6925 49.6974 76.3721 49.0586C75.7209 47.768 74.9423 46.5458 74.0478 45.4102C74.1123 44.1045 74.1309 41.5469 74.0742 40.8672C73.9595 39.5463 73.7238 38.2387 73.3701 36.9609C73.1023 35.9557 72.7531 34.974 72.3262 34.0254L72.3184 34.0098C72.1094 33.5586 71.5889 32.9297 71.1123 33.4512C70.6094 34.001 70.3428 34.7266 69.9873 35.3633C69.3973 36.4184 68.74 37.4345 68.0195 38.4053C69.2891 39.4355 70.5 40.8027 72.0713 43.0723C68.7207 39.7656 64.1611 37.2949 58.9385 36.085C56.5172 35.5074 54.0361 35.2176 51.5469 35.2217H51.4902C49.5715 35.2204 47.6566 35.3947 45.7695 35.7422C45.2812 32.75 43.9473 30.8125 43.6279 30.3945C43.2246 29.8672 43.0078 30.8906 42.8838 31.1689C42.8232 31.3047 41 34.459 39.1406 37.666L36.2441 43.4854L36.9023 38.8164C31.2061 41.8438 27.0313 46.5811 25.4912 52.0977C25.4551 52.2139 25.4189 52.3301 25.3848 52.4473C25.2871 52.4404 25.1807 52.4355 25.0762 52.4355C22.292 52.4355 20.0342 55.0166 20.0342 58.1973C20.0342 61.3779 22.292 63.959 25.0762 63.959C25.2991 63.9584 25.5217 63.9415 25.7422 63.9082C27.3838 68.0352 30.7891 71.4893 35.6143 73.9141C37.958 75.0947 40.6113 76.0107 43.4932 76.6348C46.4528 77.2647 49.4711 77.578 52.4971 77.5693C56.2188 77.5693 59.7109 77.1201 62.8789 76.2314C66.0469 75.3428 68.8066 74.0439 71.1094 72.3623C74.7021 69.7383 77.0068 66.3467 77.9727 62.2715C79.4746 61.2432 80.4756 59.2236 80.4756 56.8496C80.4756 54.1016 79.1367 51.833 77.2305 51.0215ZM50.5205 63.5664C46.2861 63.5664 42.8535 60.7022 42.8535 57.168C42.8535 53.6338 46.2861 50.7686 50.5205 50.7686C54.7549 50.7686 58.1875 53.6338 58.1875 57.168C58.1875 60.7022 54.7549 63.5664 50.5205 63.5664ZM71.626 69.3008C70.321 70.4958 68.6514 71.2162 66.8867 71.3457C62.9648 71.6543 59.5215 69.1211 58.8555 65.584C60.0195 67.9102 64.2266 69.3926 69.0947 69.0107C69.841 68.9522 70.5832 68.8498 71.3174 68.7041C71.3917 68.6893 71.4689 68.6991 71.5372 68.732C71.6055 68.7649 71.6612 68.8191 71.696 68.8864C71.7309 68.9537 71.7429 69.0306 71.7302 69.1053C71.7176 69.18 71.681 69.2486 71.626 69.3008V69.3008ZM75.6709 61.6992C73.7353 61.6992 72.166 59.5283 72.166 56.8496C72.166 54.1709 73.7353 52 75.6709 52C77.6064 52 79.1758 54.1709 79.1758 56.8496C79.1758 59.5283 77.6074 61.6992 75.6709 61.6992Z" fill="#EF2AC1"/>
</g>
<defs>
<clipPath id="clip0_6635_2605">
<rect width="100" height="100" fill="white"/>
</clipPath>
</defs>
</svg>
