<svg width="160" height="160" viewBox="0 0 160 160" fill="none" xmlns="http://www.w3.org/2000/svg">
<path d="M80 160C124.183 160 160 124.183 160 80C160 35.8172 124.183 0 80 0C35.8172 0 0 35.8172 0 80C0 124.183 35.8172 160 80 160Z" fill="#00EF8B"/>
<path d="M115.103 67.4879H92.5109V90.0799H115.103V67.4879Z" fill="#FDFBF9"/>
<path d="M69.9362 98.5439C69.9362 100.221 69.4388 101.861 68.507 103.255C67.5752 104.65 66.2508 105.737 64.7013 106.378C63.1518 107.02 61.4468 107.188 59.8018 106.861C58.1568 106.534 56.6458 105.726 55.4599 104.54C54.2739 103.354 53.4663 101.843 53.1391 100.198C52.8119 98.5533 52.9798 96.8482 53.6217 95.2987C54.2635 93.7492 55.3504 92.4248 56.7449 91.493C58.1395 90.5612 59.779 90.0639 61.4562 90.0639H69.9362V67.4879H61.4562C55.3139 67.4879 49.3095 69.3093 44.2024 72.7218C39.0952 76.1343 35.1147 80.9845 32.7642 86.6593C30.4136 92.334 29.7986 98.5783 30.9969 104.603C32.1952 110.627 35.153 116.16 39.4963 120.504C43.8395 124.847 49.3732 127.805 55.3974 129.003C61.4217 130.201 67.666 129.586 73.3408 127.236C79.0155 124.885 83.8658 120.905 87.2783 115.798C90.6908 110.69 92.5122 104.686 92.5122 98.5439V90.0639H69.9362V98.5439Z" fill="#FDFBF9"/>
<path d="M100.991 56.192H126.399V33.5999H100.991C92.7573 33.6083 84.863 36.883 79.0407 42.7053C73.2185 48.5277 69.9438 56.422 69.9353 64.656V67.488H92.5113V64.656C92.5155 62.4097 93.4108 60.2569 95.0007 58.6701C96.5905 57.0832 98.745 56.192 100.991 56.192V56.192Z" fill="#FDFBF9"/>
<path d="M69.9353 90.0638H92.5113V67.4879H69.9353V90.0638Z" fill="#16FF99"/>
<circle cx="80" cy="80" r="80" fill="#050505" fill-opacity="0.5"/>
<path d="M59.8125 73.6406V61.2969C59.8125 56.401 60.75 52.3385 62.625 49.1094C64.5 45.8802 66.9479 43.4714 69.9688 41.8828C72.9896 40.2943 76.2057 39.5 79.6172 39.5C83.0286 39.5 86.2448 40.2943 89.2656 41.8828C92.2865 43.4714 94.7344 45.8802 96.6094 49.1094C98.5104 52.3385 99.4609 56.401 99.4609 61.2969V73.6406H93.25V60.4766C93.25 57.1953 92.612 54.4349 91.3359 52.1953C90.0859 49.9557 88.4193 48.263 86.3359 47.1172C84.2786 45.9714 82.0391 45.3984 79.6172 45.3984C77.1693 45.3984 74.9167 45.9714 72.8594 47.1172C70.8021 48.263 69.1354 49.9557 67.8594 52.1953C66.6094 54.4349 65.9844 57.1953 65.9844 60.4766V73.6406H59.8125ZM61.7266 116.102C58.862 116.102 56.6745 115.32 55.1641 113.758C53.6797 112.221 52.9375 109.904 52.9375 106.805V79.8906C52.9375 76.8177 53.6797 74.513 55.1641 72.9766C56.6745 71.4141 58.862 70.6328 61.7266 70.6328H97.5078C99.7474 70.6328 101.57 71.1276 102.977 72.1172C104.383 73.1068 105.32 74.5521 105.789 76.4531L105.828 77.0781C105.385 77 104.93 76.9479 104.461 76.9219C104.018 76.8958 103.562 76.8828 103.094 76.8828C99.6562 76.8828 96.4141 77.5469 93.3672 78.875C90.3203 80.1771 87.638 81.987 85.3203 84.3047C83.0286 86.6224 81.2188 89.3047 79.8906 92.3516C78.5885 95.3724 77.9375 98.6146 77.9375 102.078C77.9375 104.682 78.3151 107.169 79.0703 109.539C79.8516 111.909 80.9323 114.096 82.3125 116.102H61.7266ZM103.133 121.922C100.424 121.922 97.8724 121.401 95.4766 120.359C93.0807 119.344 90.9714 117.924 89.1484 116.102C87.3255 114.279 85.8932 112.169 84.8516 109.773C83.8099 107.378 83.2891 104.812 83.2891 102.078C83.2891 99.3438 83.8099 96.7917 84.8516 94.4219C85.8932 92.026 87.3255 89.9167 89.1484 88.0938C90.9714 86.2448 93.0807 84.8125 95.4766 83.7969C97.8724 82.7552 100.424 82.2344 103.133 82.2344C105.867 82.2344 108.432 82.7552 110.828 83.7969C113.224 84.8125 115.333 86.2318 117.156 88.0547C118.979 89.8776 120.398 91.987 121.414 94.3828C122.456 96.7786 122.977 99.3438 122.977 102.078C122.977 104.786 122.456 107.339 121.414 109.734C120.372 112.13 118.927 114.24 117.078 116.062C115.255 117.885 113.146 119.318 110.75 120.359C108.354 121.401 105.815 121.922 103.133 121.922ZM93.8359 105.125H103.328C104.005 105.125 104.565 104.891 105.008 104.422C105.477 103.953 105.711 103.38 105.711 102.703V90.5156C105.711 89.8646 105.477 89.3177 105.008 88.875C104.539 88.4062 103.979 88.1719 103.328 88.1719C102.651 88.1719 102.078 88.4062 101.609 88.875C101.141 89.3177 100.906 89.8646 100.906 90.5156V100.32H93.8359C93.1849 100.32 92.612 100.555 92.1172 101.023C91.6484 101.492 91.4141 102.052 91.4141 102.703C91.4141 103.354 91.6484 103.927 92.1172 104.422C92.5859 104.891 93.1589 105.125 93.8359 105.125Z" fill="white"/>
</svg>
