<svg width="177" height="196" viewBox="0 0 177 196" fill="none" xmlns="http://www.w3.org/2000/svg">
<path d="M165.437 41.0656L99.3174 2.89561C96.0359 0.998729 92.3126 0 88.5224 0C84.7321 0 81.0088 0.998729 77.7274 2.89561L11.6074 41.0656C8.32535 42.9617 5.59974 45.6876 3.7041 48.9699C1.80846 52.2521 0.809464 55.9753 0.807373 59.7656V136.116C0.809464 139.906 1.80846 143.629 3.7041 146.911C5.59974 150.194 8.32535 152.92 11.6074 154.816L77.6974 192.986C80.9788 194.882 84.7021 195.881 88.4924 195.881C92.2826 195.881 96.0059 194.882 99.2874 192.986L165.407 154.816C168.689 152.92 171.415 150.194 173.311 146.911C175.206 143.629 176.205 139.906 176.207 136.116V59.7656C176.208 55.9782 175.214 52.257 173.324 48.975C171.433 45.693 168.714 42.9655 165.437 41.0656ZM39.8874 59.9956C39.6583 59.5941 39.5505 59.1349 39.5771 58.6734C39.6038 58.2119 39.7636 57.7681 40.0374 57.3956C40.2885 57.0183 40.6336 56.713 41.0387 56.5096C41.4437 56.3062 41.8947 56.2117 42.3474 56.2356H61.5874C61.8777 56.2214 62.1679 56.2654 62.441 56.365C62.714 56.4646 62.9644 56.6178 63.1774 56.8156C63.5726 57.0404 63.8795 57.3931 64.0474 57.8156L82.1774 97.9156L69.6974 124.196L39.8874 59.9956ZM136.807 59.9956L91.3874 157.356C91.1917 157.842 90.8501 158.256 90.4097 158.541C89.9692 158.826 89.4514 158.967 88.9274 158.946H87.4774C87.0625 158.937 86.6555 158.831 86.289 158.637C85.9225 158.442 85.6069 158.164 85.3674 157.826C85.2428 157.675 85.126 157.518 85.0174 157.356L75.9674 137.816L88.7774 110.626L112.697 57.8256C112.865 57.4031 113.172 57.0504 113.567 56.8256C113.781 56.6287 114.031 56.4761 114.304 56.3766C114.577 56.277 114.867 56.2325 115.157 56.2456H134.397C134.847 56.2244 135.295 56.319 135.697 56.5203C136.1 56.7217 136.445 57.0231 136.697 57.3956C136.967 57.771 137.122 58.2172 137.141 58.6792C137.161 59.1411 137.045 59.5987 136.807 59.9956Z" fill="url(#paint0_linear)"/>
<defs>
<linearGradient id="paint0_linear" x1="1" y1="47" x2="145.114" y2="204.942" gradientUnits="userSpaceOnUse">
<stop offset="0.0447252" stop-color="#29BDA0"/>
<stop offset="0.910923" stop-color="#167789"/>
</linearGradient>
</defs>
</svg>
