<svg width="150" height="150" viewBox="0 0 150 150" fill="none" xmlns="http://www.w3.org/2000/svg">
<rect width="150" height="150" fill="#17233A"/>
<path opacity="0.2" d="M100.653 62.6565C100.653 76.2663 89.6196 87.2993 76.0098 87.2993" stroke="#00E075" stroke-width="12.3214"/>
<path d="M100.653 87.2993C100.653 73.6894 89.6196 62.6565 76.0098 62.6565" stroke="white" stroke-width="12.3214"/>
<path d="M100.651 87.2994C100.651 100.909 89.6187 111.942 76.0088 111.942" stroke="white" stroke-width="12.3214"/>
<path opacity="0.2" d="M51.3662 87.2994C51.3662 100.909 62.3992 111.942 76.009 111.942" stroke="#00E075" stroke-width="12.3214"/>
<path opacity="0.2" d="M51.3662 62.6565C51.3662 76.2663 62.3992 87.2993 76.009 87.2993" stroke="#00E075" stroke-width="12.3214"/>
<path d="M51.3662 87.2993C51.3662 73.6894 62.3992 62.6565 76.009 62.6565" stroke="#00E075" stroke-width="12.3214"/>
<path d="M51.3662 62.6565C51.3662 49.0467 62.3992 38.0137 76.009 38.0137" stroke="#00E075" stroke-width="12.3214"/>
<path opacity="0.2" d="M100.653 62.6565C100.653 49.0467 89.6196 38.0137 76.0098 38.0137" stroke="#00E075" stroke-width="12.3214"/>
<path d="M45.2056 62.6565H57.527V105.781C57.527 112.586 52.0105 118.103 45.2056 118.103V62.6565Z" fill="#00E075"/>
</svg>
